<?xml version="1.0" encoding="UTF-8" standalone="no"?>
<!DOCTYPE svg PUBLIC "-//W3C//DTD SVG 1.0//EN" "http://www.w3.org/TR/2001/PR-SVG-20010719/DTD/svg10.dtd">
<svg width="63cm" height="19cm" viewBox="159 200 1252 380" xmlns="http://www.w3.org/2000/svg" xmlns:xlink="http://www.w3.org/1999/xlink">
  <g>
    <rect style="fill: #5353aa" x="421" y="344" width="105" height="36"/>
    <rect style="fill: none; fill-opacity:0; stroke-width: 2; stroke: #000000" x="421" y="344" width="105" height="36"/>
    <text font-size="12.8" style="fill: #000000;text-anchor:middle;font-family:monospace;font-style:normal;font-weight:normal" x="473.5" y="365.2">presidente</text>
  </g>
  <g>
    <rect style="fill: #ff0000" x="1106" y="358" width="58.8" height="36"/>
    <rect style="fill: none; fill-opacity:0; stroke-width: 2; stroke: #000000" x="1106" y="358" width="58.8" height="36"/>
    <text font-size="12.8" style="fill: #000000;text-anchor:middle;font-family:monospace;font-style:normal;font-weight:normal" x="1135.4" y="379.2">pais</text>
  </g>
  <g>
    <ellipse style="fill: #5353aa" cx="241.6" cy="464" rx="81.6" ry="18"/>
    <ellipse style="fill: none; fill-opacity:0; stroke-width: 2; stroke: #000000" cx="241.6" cy="464" rx="81.6" ry="18"/>
    <text font-size="12.8" style="fill: #000000;text-anchor:middle;font-family:monospace;font-style:normal;font-weight:normal" x="241.6" y="467.2">nombrePresidente</text>
  </g>
  <g>
    <ellipse style="fill: #5353aa" cx="496.15" cy="534" rx="93.15" ry="18"/>
    <ellipse style="fill: none; fill-opacity:0; stroke-width: 2; stroke: #000000" cx="496.15" cy="534" rx="93.15" ry="18"/>
    <text font-size="12.8" style="fill: #000000;text-anchor:middle;font-family:monospace;font-style:normal;font-weight:normal" x="496.15" y="537.2">direccionPresidente</text>
  </g>
  <g>
    <ellipse style="fill: #5353aa" cx="721.45" cy="465" rx="85.45" ry="18"/>
    <ellipse style="fill: none; fill-opacity:0; stroke-width: 2; stroke: #000000" cx="721.45" cy="465" rx="85.45" ry="18"/>
    <text font-size="12.8" style="fill: #000000;text-anchor:middle;font-family:monospace;font-style:normal;font-weight:normal" x="721.45" y="468.2">partidoPresidente</text>
  </g>
  <g>
    <ellipse style="fill: #5353aa" cx="493.2" cy="239" rx="66.2" ry="18"/>
    <ellipse style="fill: none; fill-opacity:0; stroke-width: 2; stroke: #000000" cx="493.2" cy="239" rx="66.2" ry="18"/>
    <text font-size="12.8" style="fill: #000000;text-anchor:middle;font-family:monospace;font-style:normal;font-weight:normal" x="493.2" y="242.2">idPresidente</text>
    <line style="fill: none; fill-opacity:0; stroke-width: 2; stroke: #000000" x1="447" y1="247" x2="539.4" y2="247"/>
  </g>
  <g>
    <ellipse style="fill: #ff0000" cx="1129.1" cy="220" rx="43.1" ry="18"/>
    <ellipse style="fill: none; fill-opacity:0; stroke-width: 2; stroke: #000000" cx="1129.1" cy="220" rx="43.1" ry="18"/>
    <text font-size="12.8" style="fill: #000000;text-anchor:middle;font-family:monospace;font-style:normal;font-weight:normal" x="1129.1" y="223.2">idPais</text>
    <line style="fill: none; fill-opacity:0; stroke-width: 2; stroke: #000000" x1="1106" y1="228" x2="1152.2" y2="228"/>
  </g>
  <g>
    <ellipse style="fill: #ff0000" cx="924.5" cy="465" rx="58.5" ry="18"/>
    <ellipse style="fill: none; fill-opacity:0; stroke-width: 2; stroke: #000000" cx="924.5" cy="465" rx="58.5" ry="18"/>
    <text font-size="12.8" style="fill: #000000;text-anchor:middle;font-family:monospace;font-style:normal;font-weight:normal" x="924.5" y="468.2">nombrePais</text>
  </g>
  <g>
    <ellipse style="fill: #ff0000" cx="1339.05" cy="455" rx="70.05" ry="18"/>
    <ellipse style="fill: none; fill-opacity:0; stroke-width: 2; stroke: #000000" cx="1339.05" cy="455" rx="70.05" ry="18"/>
    <text font-size="12.8" style="fill: #000000;text-anchor:middle;font-family:monospace;font-style:normal;font-weight:normal" x="1339.05" y="458.2">dimensionPais</text>
  </g>
  <g>
    <ellipse style="fill: #ff0000" cx="1129.9" cy="562" rx="73.9" ry="18"/>
    <ellipse style="fill: none; fill-opacity:0; stroke-width: 2; stroke: #000000" cx="1129.9" cy="562" rx="73.9" ry="18"/>
    <text font-size="12.8" style="fill: #000000;text-anchor:middle;font-family:monospace;font-style:normal;font-weight:normal" x="1129.9" y="565.2">habitantesPais</text>
  </g>
  <line style="fill: none; fill-opacity:0; stroke-width: 2; stroke: #000000" x1="476.001" y1="380.991" x2="493.649" y2="515.009"/>
  <line style="fill: none; fill-opacity:0; stroke-width: 2; stroke: #000000" x1="519.143" y1="380.96" x2="681.883" y2="448.564"/>
  <line style="fill: none; fill-opacity:0; stroke-width: 2; stroke: #000000" x1="430.33" y1="380.988" x2="279.094" y2="447.508"/>
  <line style="fill: none; fill-opacity:0; stroke-width: 2; stroke: #000000" x1="476.542" y1="343.006" x2="490.18" y2="257.858"/>
  <line style="fill: none; fill-opacity:0; stroke-width: 2; stroke: #000000" x1="1105.01" y1="388.825" x2="959.886" y2="450.067"/>
  <line style="fill: none; fill-opacity:0; stroke-width: 2; stroke: #000000" x1="1134.84" y1="394.993" x2="1130.46" y2="543.007"/>
  <line style="fill: none; fill-opacity:0; stroke-width: 2; stroke: #000000" x1="1165.79" y1="387.789" x2="1299.45" y2="439.638"/>
  <line style="fill: none; fill-opacity:0; stroke-width: 2; stroke: #000000" x1="1134.54" y1="357.065" x2="1129.1" y2="238"/>
  <g>
    <polygon style="fill: #ffffff" points="759,352.55 798.25,329 837.5,352.55 798.25,376.1 "/>
    <polygon style="fill: none; fill-opacity:0; stroke-width: 2; stroke: #000000" points="759,352.55 798.25,329 837.5,352.55 798.25,376.1 "/>
    <text font-size="12.8" style="fill: #000000;text-anchor:end;font-family:monospace;font-style:normal;font-weight:normal" x="753" y="346.55">1:1</text>
    <text font-size="12.8" style="fill: #000000;text-anchor:start;font-family:monospace;font-style:normal;font-weight:normal" x="843.5" y="346.55">0:1</text>
    <text font-size="12.8" style="fill: #000000;text-anchor:middle;font-family:monospace;font-style:normal;font-weight:normal" x="798.25" y="355.75">tener</text>
  </g>
  <line style="fill: none; fill-opacity:0; stroke-width: 2; stroke: #000000" x1="526.978" y1="360.444" x2="758.003" y2="353.721"/>
  <line style="fill: none; fill-opacity:0; stroke-width: 2; stroke: #000000" x1="838.459" y1="355.347" x2="1105.01" y2="373.886"/>
</svg>
