<?xml version="1.0" encoding="UTF-8" standalone="no"?>
<!DOCTYPE svg PUBLIC "-//W3C//DTD SVG 1.0//EN" "http://www.w3.org/TR/2001/PR-SVG-20010719/DTD/svg10.dtd">
<svg width="60cm" height="15cm" viewBox="262 103 1189 300" xmlns="http://www.w3.org/2000/svg" xmlns:xlink="http://www.w3.org/1999/xlink">
  <g>
    <rect style="fill: #00ff00" x="374" y="202" width="105" height="36"/>
    <rect style="fill: none; fill-opacity:0; stroke-width: 2; stroke: #000000" x="374" y="202" width="105" height="36"/>
    <text font-size="12.8" style="fill: #000000;text-anchor:middle;font-family:monospace;font-style:normal;font-weight:normal" x="426.5" y="223.2">Municipios</text>
  </g>
  <g>
    <rect style="fill: #5353aa" x="776" y="202" width="97.3" height="36"/>
    <rect style="fill: none; fill-opacity:0; stroke-width: 2; stroke: #000000" x="776" y="202" width="97.3" height="36"/>
    <text font-size="12.8" style="fill: #000000;text-anchor:middle;font-family:monospace;font-style:normal;font-weight:normal" x="824.65" y="223.2">Viviendas</text>
  </g>
  <g>
    <rect style="fill: #ff0000" x="1259" y="218" width="89.6" height="36"/>
    <rect style="fill: none; fill-opacity:0; stroke-width: 2; stroke: #000000" x="1259" y="218" width="89.6" height="36"/>
    <text font-size="12.8" style="fill: #000000;text-anchor:middle;font-family:monospace;font-style:normal;font-weight:normal" x="1303.8" y="239.2">Personas</text>
  </g>
  <g>
    <ellipse style="fill: #00ff00" cx="340.75" cy="352" rx="77.75" ry="18"/>
    <ellipse style="fill: none; fill-opacity:0; stroke-width: 2; stroke: #000000" cx="340.75" cy="352" rx="77.75" ry="18"/>
    <text font-size="12.7998" style="fill: #000000;text-anchor:middle;font-family:monospace;font-style:normal;font-weight:normal" x="340.75" y="356">nombreMunicipio</text>
  </g>
  <g>
    <ellipse style="fill: #00ff00" cx="513.35" cy="352" rx="62.35" ry="18"/>
    <ellipse style="fill: none; fill-opacity:0; stroke-width: 2; stroke: #000000" cx="513.35" cy="352" rx="62.35" ry="18"/>
    <text font-size="12.7998" style="fill: #000000;text-anchor:middle;font-family:monospace;font-style:normal;font-weight:normal" x="513.35" y="356">cpMunicipio</text>
  </g>
  <g>
    <ellipse style="fill: #5353aa" cx="711.45" cy="373" rx="85.45" ry="18"/>
    <ellipse style="fill: none; fill-opacity:0; stroke-width: 2; stroke: #000000" cx="711.45" cy="373" rx="85.45" ry="18"/>
    <text font-size="12.7998" style="fill: #000000;text-anchor:middle;font-family:monospace;font-style:normal;font-weight:normal" x="711.45" y="377">direcciónVivienda</text>
  </g>
  <g>
    <ellipse style="fill: #5353aa" cx="909.3" cy="364" rx="89.3" ry="18"/>
    <ellipse style="fill: none; fill-opacity:0; stroke-width: 2; stroke: #000000" cx="909.3" cy="364" rx="89.3" ry="18"/>
    <text font-size="12.7998" style="fill: #000000;text-anchor:middle;font-family:monospace;font-style:normal;font-weight:normal" x="909.3" y="368">superficieVivienda</text>
  </g>
  <g>
    <ellipse style="fill: #ff0000" cx="1232.5" cy="383" rx="58.5" ry="18"/>
    <ellipse style="fill: none; fill-opacity:0; stroke-width: 2; stroke: #000000" cx="1232.5" cy="383" rx="58.5" ry="18"/>
    <text font-size="12.7998" style="fill: #000000;text-anchor:middle;font-family:monospace;font-style:normal;font-weight:normal" x="1232.5" y="387">dniPersona</text>
  </g>
  <g>
    <ellipse style="fill: #ff0000" cx="1379.05" cy="384" rx="70.05" ry="18"/>
    <ellipse style="fill: none; fill-opacity:0; stroke-width: 2; stroke: #000000" cx="1379.05" cy="384" rx="70.05" ry="18"/>
    <text font-size="12.7998" style="fill: #000000;text-anchor:middle;font-family:monospace;font-style:normal;font-weight:normal" x="1379.05" y="388">nombrePersona</text>
  </g>
  <g>
    <ellipse style="fill: #ff0000" cx="1302.5" cy="150" rx="58.5" ry="18"/>
    <ellipse style="fill: none; fill-opacity:0; stroke-width: 2; stroke: #000000" cx="1302.5" cy="150" rx="58.5" ry="18"/>
    <text font-size="12.7998" style="fill: #000000;text-anchor:middle;font-family:monospace;font-style:normal;font-weight:normal" x="1302.5" y="154">idPersonas</text>
    <line style="fill: none; fill-opacity:0; stroke-width: 2; stroke: #000000" x1="1264" y1="158" x2="1341" y2="158"/>
  </g>
  <g>
    <ellipse style="fill: #5353aa" cx="825.5" cy="123" rx="58.5" ry="18"/>
    <ellipse style="fill: none; fill-opacity:0; stroke-width: 2; stroke: #000000" cx="825.5" cy="123" rx="58.5" ry="18"/>
    <text font-size="12.7998" style="fill: #000000;text-anchor:middle;font-family:monospace;font-style:normal;font-weight:normal" x="825.5" y="127">idVivienda</text>
    <line style="fill: none; fill-opacity:0; stroke-width: 2; stroke: #000000" x1="787" y1="131" x2="864" y2="131"/>
  </g>
  <g>
    <ellipse style="fill: #00ff00" cx="427.2" cy="138" rx="66.2" ry="18"/>
    <ellipse style="fill: none; fill-opacity:0; stroke-width: 2; stroke: #000000" cx="427.2" cy="138" rx="66.2" ry="18"/>
    <text font-size="12.7998" style="fill: #000000;text-anchor:middle;font-family:monospace;font-style:normal;font-weight:normal" x="427.2" y="142">idMunicipios</text>
    <line style="fill: none; fill-opacity:0; stroke-width: 2; stroke: #000000" x1="381" y1="146" x2="473.4" y2="146"/>
  </g>
  <line style="fill: none; fill-opacity:0; stroke-width: 2; stroke: #000000" x1="426.662" y1="201.001" x2="427.038" y2="156.999"/>
  <line style="fill: none; fill-opacity:0; stroke-width: 2; stroke: #000000" x1="414.169" y1="238.981" x2="352.856" y2="333.365"/>
  <line style="fill: none; fill-opacity:0; stroke-width: 2; stroke: #000000" x1="438.989" y1="238.981" x2="501.169" y2="333.486"/>
  <line style="fill: none; fill-opacity:0; stroke-width: 2; stroke: #000000" x1="825.333" y1="142.005" x2="824.817" y2="200.995"/>
  <line style="fill: none; fill-opacity:0; stroke-width: 2; stroke: #000000" x1="810.597" y1="238.994" x2="725.185" y2="354.435"/>
  <line style="fill: none; fill-opacity:0; stroke-width: 2; stroke: #000000" x1="835.82" y1="239.002" x2="898.295" y2="345.279"/>
  <line style="fill: none; fill-opacity:0; stroke-width: 2; stroke: #000000" x1="1294.59" y1="254.994" x2="1241.57" y2="364.293"/>
  <line style="fill: none; fill-opacity:0; stroke-width: 2; stroke: #000000" x1="1313.45" y1="254.97" x2="1369.52" y2="365.265"/>
  <line style="fill: none; fill-opacity:0; stroke-width: 2; stroke: #000000" x1="1303.51" y1="217.009" x2="1302.79" y2="168.991"/>
  <g>
    <polygon style="fill: #ffffff" points="1021,160.17 1067.95,132 1114.9,160.17 1067.95,188.34 "/>
    <polygon style="fill: none; fill-opacity:0; stroke-width: 2; stroke: #000000" points="1021,160.17 1067.95,132 1114.9,160.17 1067.95,188.34 "/>
    <text font-size="12.7998" style="fill: #000000;text-anchor:end;font-family:monospace;font-style:normal;font-weight:normal" x="1015" y="154.17">0:1</text>
    <text font-size="12.7998" style="fill: #000000;text-anchor:start;font-family:monospace;font-style:normal;font-weight:normal" x="1120.9" y="154.17">0:N</text>
    <text font-size="12.7998" style="fill: #000000;text-anchor:middle;font-family:monospace;font-style:normal;font-weight:normal" x="1067.95" y="164.17">Habitar</text>
  </g>
  <line style="fill: none; fill-opacity:0; stroke-width: 2; stroke: #000000" x1="874.189" y1="207.818" x2="1020" y2="171.961"/>
  <line style="fill: none; fill-opacity:0; stroke-width: 2; stroke: #000000" x1="1115.89" y1="175.582" x2="1258.01" y2="221.277"/>
  <g>
    <polygon style="fill: #ffffff" points="1030,331.86 1073.1,306 1116.2,331.86 1073.1,357.72 "/>
    <polygon style="fill: none; fill-opacity:0; stroke-width: 2; stroke: #000000" points="1030,331.86 1073.1,306 1116.2,331.86 1073.1,357.72 "/>
    <text font-size="12.7998" style="fill: #000000;text-anchor:end;font-family:monospace;font-style:normal;font-weight:normal" x="1024" y="325.86">0:N</text>
    <text font-size="12.7998" style="fill: #000000;text-anchor:start;font-family:monospace;font-style:normal;font-weight:normal" x="1122.2" y="325.86">1:M</text>
    <text font-size="12.7998" style="fill: #000000;text-anchor:middle;font-family:monospace;font-style:normal;font-weight:normal" x="1073.1" y="335.86">Poseer</text>
  </g>
  <line style="fill: none; fill-opacity:0; stroke-width: 2; stroke: #000000" x1="866.624" y1="238.898" x2="1028.99" y2="312.003"/>
  <line style="fill: none; fill-opacity:0; stroke-width: 2; stroke: #000000" x1="1117.17" y1="313.547" x2="1258.18" y2="254.957"/>
  <g>
    <polygon style="fill: #ffffff" points="560,219.1 618.5,184 677,219.1 618.5,254.2 "/>
    <polygon style="fill: none; fill-opacity:0; stroke-width: 2; stroke: #000000" points="560,219.1 618.5,184 677,219.1 618.5,254.2 "/>
    <text font-size="12.7998" style="fill: #000000;text-anchor:end;font-family:monospace;font-style:normal;font-weight:normal" x="554" y="213.1">1:1</text>
    <text font-size="12.7998" style="fill: #000000;text-anchor:start;font-family:monospace;font-style:normal;font-weight:normal" x="683" y="213.1">1:N</text>
    <text font-size="12.7998" style="fill: #000000;text-anchor:middle;font-family:monospace;font-style:normal;font-weight:normal" x="618.5" y="223.1">Pertenecer</text>
  </g>
  <line style="fill: none; fill-opacity:0; stroke-width: 2; stroke: #000000" x1="479.996" y1="219.749" x2="559.004" y2="219.379"/>
  <line style="fill: none; fill-opacity:0; stroke-width: 2; stroke: #000000" x1="678.002" y1="219.36" x2="775.012" y2="219.783"/>
</svg>
