<?xml version="1.0" encoding="UTF-8" standalone="no"?>
<!DOCTYPE svg PUBLIC "-//W3C//DTD SVG 1.0//EN" "http://www.w3.org/TR/2001/PR-SVG-20010719/DTD/svg10.dtd">
<svg width="63cm" height="19cm" viewBox="133 239 1248 367" xmlns="http://www.w3.org/2000/svg" xmlns:xlink="http://www.w3.org/1999/xlink">
  <g>
    <rect style="fill: #5353aa" x="442" y="347" width="81.9" height="36"/>
    <rect style="fill: none; fill-opacity:0; stroke-width: 2; stroke: #000000" x="442" y="347" width="81.9" height="36"/>
    <text font-size="12.8" style="fill: #000000;text-anchor:middle;font-family:monospace;font-style:normal;font-weight:normal" x="482.95" y="368.2">Cliente</text>
  </g>
  <g>
    <rect style="fill: #00ff00" x="1027" y="343" width="74.2" height="36"/>
    <rect style="fill: none; fill-opacity:0; stroke-width: 2; stroke: #000000" x="1027" y="343" width="74.2" height="36"/>
    <text font-size="12.8" style="fill: #000000;text-anchor:middle;font-family:monospace;font-style:normal;font-weight:normal" x="1064.1" y="364.2">Cuenta</text>
  </g>
  <g>
    <ellipse style="fill: #5353aa" cx="192.5" cy="436" rx="58.5" ry="18"/>
    <ellipse style="fill: none; fill-opacity:0; stroke-width: 2; stroke: #000000" cx="192.5" cy="436" rx="58.5" ry="18"/>
    <text font-size="12.8" style="fill: #000000;text-anchor:middle;font-family:monospace;font-style:normal;font-weight:normal" x="192.5" y="439.2">dniCliente</text>
  </g>
  <g>
    <ellipse style="fill: #5353aa" cx="280.05" cy="495" rx="70.05" ry="18"/>
    <ellipse style="fill: none; fill-opacity:0; stroke-width: 2; stroke: #000000" cx="280.05" cy="495" rx="70.05" ry="18"/>
    <text font-size="12.8" style="fill: #000000;text-anchor:middle;font-family:monospace;font-style:normal;font-weight:normal" x="280.05" y="498.2">nombreCliente</text>
  </g>
  <g>
    <ellipse style="fill: #5353aa" cx="435.6" cy="521" rx="81.6" ry="18"/>
    <ellipse style="fill: none; fill-opacity:0; stroke-width: 2; stroke: #000000" cx="435.6" cy="521" rx="81.6" ry="18"/>
    <text font-size="12.8" style="fill: #000000;text-anchor:middle;font-family:monospace;font-style:normal;font-weight:normal" x="435.6" y="524.2">direccionCliente</text>
  </g>
  <g>
    <ellipse style="fill: #5353aa" cx="485.65" cy="259" rx="54.65" ry="18"/>
    <ellipse style="fill: none; fill-opacity:0; stroke-width: 2; stroke: #000000" cx="485.65" cy="259" rx="54.65" ry="18"/>
    <text font-size="12.8" style="fill: #000000;text-anchor:middle;font-family:monospace;font-style:normal;font-weight:normal" x="485.65" y="262.2">idCliente</text>
    <line style="fill: none; fill-opacity:0; stroke-width: 2; stroke: #000000" x1="451" y1="267" x2="520.3" y2="267"/>
  </g>
  <g>
    <ellipse style="fill: #00ff00" cx="1077.2" cy="523" rx="66.2" ry="18"/>
    <ellipse style="fill: none; fill-opacity:0; stroke-width: 2; stroke: #000000" cx="1077.2" cy="523" rx="66.2" ry="18"/>
    <text font-size="12.8" style="fill: #000000;text-anchor:middle;font-family:monospace;font-style:normal;font-weight:normal" x="1077.2" y="526.2">numeroCuenta</text>
  </g>
  <g>
    <ellipse style="fill: #00ff00" cx="1213.5" cy="494" rx="58.5" ry="18"/>
    <ellipse style="fill: none; fill-opacity:0; stroke-width: 2; stroke: #000000" cx="1213.5" cy="494" rx="58.5" ry="18"/>
    <text font-size="12.8" style="fill: #000000;text-anchor:middle;font-family:monospace;font-style:normal;font-weight:normal" x="1213.5" y="497.2">tipoCuenta</text>
  </g>
  <g>
    <ellipse style="fill: #00ff00" cx="1317.35" cy="444" rx="62.35" ry="18"/>
    <ellipse style="fill: none; fill-opacity:0; stroke-width: 2; stroke: #000000" cx="1317.35" cy="444" rx="62.35" ry="18"/>
    <text font-size="12.8" style="fill: #000000;text-anchor:middle;font-family:monospace;font-style:normal;font-weight:normal" x="1317.35" y="447.2">saldoCuenta</text>
  </g>
  <g>
    <ellipse style="fill: #00ff00" cx="1078.8" cy="258" rx="50.8" ry="18"/>
    <ellipse style="fill: none; fill-opacity:0; stroke-width: 2; stroke: #000000" cx="1078.8" cy="258" rx="50.8" ry="18"/>
    <text font-size="12.8" style="fill: #000000;text-anchor:middle;font-family:monospace;font-style:normal;font-weight:normal" x="1078.8" y="261.2">idCuenta</text>
  </g>
  <g>
    <polygon style="fill: #ffffff" points="733,306.55 772.25,283 811.5,306.55 772.25,330.1 "/>
    <polygon style="fill: none; fill-opacity:0; stroke-width: 2; stroke: #000000" points="733,306.55 772.25,283 811.5,306.55 772.25,330.1 "/>
    <text font-size="12.8" style="fill: #000000;text-anchor:end;font-family:monospace;font-style:normal;font-weight:normal" x="727" y="300.55">1:N</text>
    <text font-size="12.8" style="fill: #000000;text-anchor:start;font-family:monospace;font-style:normal;font-weight:normal" x="817.5" y="300.55">1:M</text>
    <text font-size="12.8" style="fill: #000000;text-anchor:middle;font-family:monospace;font-style:normal;font-weight:normal" x="772.25" y="309.75">tener</text>
  </g>
  <line style="fill: none; fill-opacity:0; stroke-width: 2; stroke: #000000" x1="524.834" y1="356.538" x2="732.062" y2="314.67"/>
  <line style="fill: none; fill-opacity:0; stroke-width: 2; stroke: #000000" x1="812.472" y1="314.054" x2="1026.01" y2="353.893"/>
  <line style="fill: none; fill-opacity:0; stroke-width: 2; stroke: #000000" x1="453.303" y1="383.995" x2="306.961" y2="477.758"/>
  <line style="fill: none; fill-opacity:0; stroke-width: 2; stroke: #000000" x1="477.187" y1="383.986" x2="441.34" y2="502.09"/>
  <line style="fill: none; fill-opacity:0; stroke-width: 2; stroke: #000000" x1="440.997" y1="375.255" x2="239.274" y2="424.566"/>
  <line style="fill: none; fill-opacity:0; stroke-width: 2; stroke: #000000" x1="483.434" y1="345.998" x2="485.166" y2="278.002"/>
  <line style="fill: none; fill-opacity:0; stroke-width: 2; stroke: #000000" x1="1085.45" y1="380.003" x2="1193.65" y2="476.328"/>
  <line style="fill: none; fill-opacity:0; stroke-width: 2; stroke: #000000" x1="1065.64" y1="379.994" x2="1075.66" y2="504.006"/>
  <line style="fill: none; fill-opacity:0; stroke-width: 2; stroke: #000000" x1="1102.2" y1="373.487" x2="1275.24" y2="430.2"/>
  <line style="fill: none; fill-opacity:0; stroke-width: 2; stroke: #000000" x1="1066.81" y1="342.04" x2="1076.09" y2="276.973"/>
  <g>
    <polygon style="fill: #ffffff" points="743,462.55 782.25,439 821.5,462.55 782.25,486.1 "/>
    <polygon style="fill: none; fill-opacity:0; stroke-width: 2; stroke: #000000" points="743,462.55 782.25,439 821.5,462.55 782.25,486.1 "/>
    <text font-size="12.8" style="fill: #000000;text-anchor:end;font-family:monospace;font-style:normal;font-weight:normal" x="737" y="456.55">1:N</text>
    <text font-size="12.8" style="fill: #000000;text-anchor:start;font-family:monospace;font-style:normal;font-weight:normal" x="827.5" y="456.55">1:M</text>
    <text font-size="12.8" style="fill: #000000;text-anchor:middle;font-family:monospace;font-style:normal;font-weight:normal" x="782.25" y="465.75">abrir</text>
  </g>
  <line style="fill: none; fill-opacity:0; stroke-width: 2; stroke: #000000" x1="524.902" y1="378.673" x2="742.024" y2="449.439"/>
  <line style="fill: none; fill-opacity:0; stroke-width: 2; stroke: #000000" x1="822.47" y1="448.059" x2="1026" y2="374.726"/>
  <g>
    <ellipse style="fill: #ffffff" cx="782.05" cy="587" rx="70.05" ry="18"/>
    <ellipse style="fill: none; fill-opacity:0; stroke-width: 2; stroke: #000000" cx="782.05" cy="587" rx="70.05" ry="18"/>
    <text font-size="12.8" style="fill: #000000;text-anchor:middle;font-family:monospace;font-style:normal;font-weight:normal" x="782.05" y="590.2">fechaApertura</text>
  </g>
  <line style="fill: none; fill-opacity:0; stroke-width: 2; stroke: #000000" x1="782.211" y1="487.107" x2="782.081" y2="568.01"/>
</svg>
